<svg width="500" height="500" viewBox="0 0 500 500" fill="none" xmlns="http://www.w3.org/2000/svg">
<rect width="500" height="500" fill="#1E1B3A"/>
<path d="M256.748 42.0739C275.661 53.6826 291.172 72.0224 306.691 87.6317C309.585 90.5287 312.481 93.4247 315.377 96.32C322.951 103.896 330.514 111.484 338.074 119.075C345.769 126.797 353.476 134.509 361.181 142.221C373.617 154.669 386.046 167.125 398.465 179.589C407.647 188.803 416.847 197.997 426.094 207.145C429.236 210.264 432.378 213.383 435.52 216.502C437.111 218.073 438.701 219.645 440.34 221.264C441.87 222.785 443.4 224.306 444.977 225.874C446.363 227.247 447.749 228.621 449.177 230.036C455.221 236.428 459.686 241.153 460.043 250.163C459.639 257.68 458.121 261.228 453.01 266.729C451.133 268.763 451.133 268.763 449.217 270.837C441.853 278.493 434.421 286.068 426.901 293.571C425.132 295.343 423.363 297.116 421.541 298.942C416.735 303.757 411.922 308.566 407.108 313.373C404.096 316.381 401.086 319.391 398.076 322.4C387.565 332.912 377.049 343.418 366.528 353.919C356.733 363.696 346.95 373.484 337.171 383.277C328.754 391.705 320.329 400.126 311.899 408.541C306.872 413.558 301.849 418.579 296.833 423.607C291.251 429.202 285.654 434.78 280.055 440.358C278.399 442.022 276.743 443.687 275.036 445.402C273.51 446.917 271.984 448.432 270.412 449.993C269.091 451.313 267.771 452.632 266.411 453.991C260.435 459.185 257.135 461.292 249.058 460.944C230.959 455.817 215.816 436.563 202.84 423.517C201.121 421.805 199.402 420.093 197.631 418.329C192.988 413.699 188.353 409.061 183.723 404.419C178.851 399.538 173.968 394.667 169.087 389.795C160.914 381.634 152.748 373.465 144.587 365.291C135.157 355.846 125.718 346.413 116.272 336.985C106.182 326.913 96.0986 316.833 86.0179 306.752C83.1213 303.856 80.2234 300.962 77.3252 298.068C71.9382 292.687 66.5596 287.299 61.182 281.909C59.579 280.31 57.976 278.711 56.3244 277.063C54.1346 274.864 54.1346 274.864 51.9006 272.621C50.6302 271.35 49.3598 270.078 48.0509 268.768C41.7386 261.967 40.4462 257.335 40.043 248.167C42.9035 234.348 56.4305 223.858 65.9735 214.36C68.5733 211.749 68.5733 211.749 71.2256 209.086C75.9611 204.336 80.7053 199.595 85.4546 194.859C89.431 190.892 93.4015 186.918 97.3721 182.945C106.749 173.563 116.136 164.19 125.53 154.825C135.188 145.194 144.829 135.546 154.461 125.889C162.758 117.571 171.066 109.266 179.383 100.969C184.339 96.0251 189.29 91.0774 194.23 86.1184C199.748 80.5801 205.29 75.0661 210.835 69.5539C212.447 67.9298 214.058 66.3057 215.719 64.6323C242.845 37.7958 242.845 37.7958 256.748 42.0739ZM208.247 115.502C206.473 117.274 204.699 119.046 202.871 120.872C199.137 124.602 195.41 128.339 191.688 132.081C186.958 136.836 182.216 141.578 177.469 146.315C172.886 150.891 168.312 155.474 163.738 160.058C162.056 161.739 160.373 163.421 158.64 165.153C150.208 173.637 142.089 182.261 134.28 191.319C129.75 196.478 124.94 201.261 120.049 206.082C119.071 207.05 118.094 208.019 117.087 209.017C114.028 212.047 110.962 215.071 107.895 218.093C103.807 222.122 99.7259 226.157 95.6486 230.196C93.8559 231.963 92.0632 233.73 90.2162 235.55C85.4457 240.533 84.2697 242.373 83.4944 249.184C84.2648 257.183 87.123 260.961 91.9548 267.3C93.0068 268.835 94.0589 270.37 95.1428 271.952C96.033 273.002 96.9231 274.052 97.8403 275.134L100.5 278L103 281C103 281 105.484 283.227 109.979 286.395C114.476 289.987 117.552 293.042 121.189 297.378C131.387 309.147 142.511 320.011 153.538 330.997C155.88 333.336 158.221 335.675 160.562 338.015C165.44 342.887 170.321 347.756 175.204 352.622C181.462 358.858 187.712 365.103 193.958 371.351C198.778 376.17 203.603 380.984 208.429 385.796C210.736 388.099 213.042 390.402 215.346 392.707C218.557 395.918 221.774 399.122 224.993 402.324C226.821 404.147 228.648 405.97 230.531 407.848C236.637 413.616 240.887 416.788 249.269 417.247C256.598 416.923 260.175 415.767 265.553 410.797C266.911 409.546 268.269 408.294 269.667 407.005C279.854 397.181 289.911 387.236 299.916 377.228C302.368 374.782 304.82 372.336 307.272 369.891C312.388 364.786 317.501 359.678 322.611 354.567C329.125 348.053 335.648 341.547 342.174 335.044C347.232 330.002 352.285 324.955 357.337 319.907C359.739 317.508 362.143 315.11 364.547 312.714C381.468 295.856 381.468 295.856 397.428 278.096C400.644 274.337 404.119 270.85 407.564 267.3C412.78 261.189 416.497 256.133 416.768 247.929C414.08 237.937 405.227 231.187 398 224.213C394.525 220.761 391.063 217.295 387.601 213.829C385.284 211.517 382.955 209.216 380.615 206.926C374.997 201.408 369.619 195.809 364.508 189.816C355.643 179.654 346.152 170.141 336.632 160.593C335.687 159.645 334.743 158.697 333.77 157.72C328.786 152.715 323.796 147.716 318.802 142.721C313.677 137.594 308.57 132.449 303.468 127.299C299.505 123.307 295.53 119.328 291.551 115.353C288.752 112.55 285.967 109.734 283.183 106.917C268.279 91.8715 268.279 91.8715 249.024 83.9366C232.597 87.2833 219.574 104.099 208.247 115.502Z" fill="url(#paint0_linear_14_230)"/>
<path d="M311.798 196.684C326.155 206.147 338.816 217.738 351.548 229.217C353.062 230.58 353.062 230.58 354.607 231.971C365.608 242.05 365.608 242.05 367.043 249.719C365.786 257.289 361.883 260.195 356.344 265.42C355.354 266.361 354.364 267.303 353.344 268.273C350.435 271.02 347.493 273.728 344.539 276.427C343.136 277.734 341.734 279.041 340.289 280.387C312.244 305.703 281.993 320.605 243.886 319.961C214.359 318.08 191.049 305.949 169.427 286.212C168.128 284.275 166.829 282.337 165.491 280.341C170.036 275.821 174.582 271.3 179.264 266.643C185.701 269.844 191.262 273.207 197.218 277.161C220.103 291.767 241.53 297.201 268.296 291.96C294.101 285.477 312.359 271.186 330.766 252.945C320.891 231.587 295.267 216.917 273.83 208.792C252.124 202.546 231.018 204.172 210.745 213.807C209.305 214.448 207.864 215.088 206.38 215.748C185.968 225.826 167.677 243.112 153.686 260.772C144.649 257.864 139.056 253.238 132.043 247.074C143.121 219.787 179.107 199.476 204.205 187.213C238.508 172.74 280.114 178.256 311.798 196.684Z" fill="url(#paint1_linear_14_230)"/>
<ellipse cx="250.043" cy="249.481" rx="39" ry="39.5" fill="url(#paint2_linear_14_230)"/>
<defs>
<linearGradient id="paint0_linear_14_230" x1="250.043" y1="39.9808" x2="250.043" y2="460.981" gradientUnits="userSpaceOnUse">
<stop stop-color="#00F7ED"/>
<stop offset="1" stop-color="#00918B"/>
</linearGradient>
<linearGradient id="paint1_linear_14_230" x1="249.543" y1="178.981" x2="249.543" y2="319.981" gradientUnits="userSpaceOnUse">
<stop stop-color="#00F7ED"/>
<stop offset="1" stop-color="#00918B"/>
</linearGradient>
<linearGradient id="paint2_linear_14_230" x1="250.043" y1="209.981" x2="250.043" y2="288.981" gradientUnits="userSpaceOnUse">
<stop stop-color="#00F7ED"/>
<stop offset="1" stop-color="#00918B"/>
</linearGradient>
</defs>
</svg>
