<svg width="739" height="215" viewBox="0 0 739 215" fill="none" xmlns="http://www.w3.org/2000/svg">
<path d="M110.461 1.06872C120.101 6.99612 128.007 16.3604 135.918 24.3304C137.393 25.8096 138.869 27.2884 140.346 28.7667C144.206 32.6351 148.061 36.5095 151.915 40.3853C155.837 44.3283 159.766 48.2657 163.693 52.2035C170.032 58.5597 176.367 64.9194 182.698 71.2836C187.378 75.9881 192.068 80.6827 196.781 85.3539C198.383 86.9463 199.984 88.5387 201.586 90.1312C202.397 90.9337 203.208 91.7361 204.043 92.5629C204.823 93.3395 205.603 94.1162 206.406 94.9164C207.113 95.6177 207.819 96.319 208.547 97.0416C211.628 100.305 213.904 102.718 214.086 107.319C213.88 111.156 213.106 112.968 210.501 115.777C209.544 116.816 209.544 116.816 208.568 117.875C204.814 121.784 201.026 125.651 197.193 129.482C196.291 130.387 195.389 131.292 194.46 132.225C192.01 134.683 189.557 137.139 187.104 139.593C185.568 141.129 184.034 142.666 182.5 144.203C177.142 149.57 171.781 154.934 166.419 160.296C161.426 165.288 156.439 170.286 151.455 175.286C147.164 179.59 142.87 183.889 138.573 188.186C136.01 190.748 133.45 193.311 130.893 195.879C128.048 198.735 125.195 201.584 122.341 204.432C121.497 205.281 120.653 206.131 119.783 207.007C119.005 207.781 118.227 208.554 117.425 209.351C116.752 210.025 116.079 210.699 115.386 211.393C112.34 214.045 110.658 215.12 106.541 214.943C97.3154 212.325 89.5965 202.494 82.9822 195.833C82.106 194.959 81.2297 194.084 80.327 193.183C77.9602 190.82 75.598 188.452 73.2379 186.081C70.7544 183.589 68.2657 181.102 65.7776 178.614C61.6113 174.447 57.4488 170.276 53.2888 166.102C48.4824 161.28 43.6708 156.463 38.8561 151.649C33.7127 146.507 28.5732 141.36 23.4347 136.213C21.9583 134.734 20.4811 133.256 19.0038 131.778C16.2579 129.031 13.5163 126.28 10.7751 123.528C9.95805 122.712 9.14096 121.895 8.2991 121.054C7.18291 119.931 7.18291 119.931 6.04417 118.786C5.39661 118.136 4.74905 117.487 4.08187 116.818C0.864334 113.345 0.205561 110.98 0 106.299C1.45809 99.2435 8.35317 93.8873 13.2175 89.0375C14.5427 87.7046 14.5427 87.7046 15.8947 86.3448C18.3085 83.9195 20.7268 81.4988 23.1476 79.0805C25.1745 77.0547 27.1983 75.0259 29.2223 72.9972C34.0019 68.2065 38.7868 63.4211 43.575 58.639C48.4983 53.7217 53.4124 48.7953 58.322 43.8644C62.5512 39.6176 66.7862 35.3766 71.0258 31.1403C73.5518 28.6161 76.0755 26.0898 78.5936 23.5577C81.4064 20.7299 84.2313 17.9145 87.0574 15.1C87.879 14.2707 88.7006 13.4414 89.5471 12.587C103.374 -1.11565 103.374 -1.11565 110.461 1.06872ZM85.7383 38.5609C84.834 39.4657 83.9297 40.3705 82.9979 41.3026C81.0947 43.2074 79.1948 45.1155 77.2976 47.0262C74.8868 49.454 72.4694 51.8752 70.0497 54.2942C67.7139 56.6303 65.3824 58.9707 63.0508 61.3109C62.1933 62.1695 61.3358 63.0281 60.4524 63.9127C56.154 68.2447 52.0159 72.648 48.0354 77.2732C45.726 79.9069 43.2742 82.3493 40.7812 84.8109C40.283 85.3054 39.7848 85.7998 39.2715 86.3092C37.7121 87.8566 36.1495 89.4006 34.5859 90.9437C32.5023 93.0007 30.4221 95.0611 28.3438 97.1234C27.43 98.0256 26.5162 98.9278 25.5747 99.8573C23.143 102.401 22.5436 103.341 22.1484 106.819C22.5411 110.903 23.998 112.832 26.4609 116.069C26.9972 116.852 27.5334 117.636 28.0859 118.444C28.5397 118.98 28.9934 119.516 29.4609 120.069C29.4609 120.069 31.0391 121.431 31 121.5L33 123.5C33 123.5 33.3572 124.201 35.6484 125.819C37.9405 127.652 39.5084 129.213 41.3623 131.427C46.5609 137.436 52.2311 142.983 57.8516 148.592C59.0452 149.786 60.2387 150.981 61.4321 152.176C63.9183 154.663 66.4062 157.149 68.8955 159.634C72.0855 162.818 75.2709 166.007 78.455 169.197C80.9119 171.657 83.3711 174.115 85.831 176.573C87.0072 177.748 88.1825 178.924 89.3571 180.101C90.9938 181.74 92.6337 183.376 94.2744 185.012C95.2059 185.942 96.1375 186.873 97.0972 187.832C100.209 190.777 102.376 192.397 106.648 192.631C110.384 192.466 112.208 191.876 114.949 189.338C115.641 188.699 116.333 188.06 117.046 187.401C122.239 182.385 127.365 177.307 132.465 172.198C133.714 170.949 134.964 169.7 136.214 168.451C138.822 165.845 141.428 163.237 144.033 160.627C147.353 157.301 150.679 153.979 154.005 150.659C156.583 148.084 159.159 145.507 161.734 142.93C162.958 141.705 164.183 140.48 165.409 139.257C174.034 130.649 174.034 130.649 182.169 121.581C183.809 119.662 185.58 117.881 187.336 116.069C189.995 112.949 191.889 110.367 192.027 106.178C190.657 101.076 186.145 97.6294 182.461 94.0687C180.689 92.3059 178.925 90.5363 177.16 88.7665C175.979 87.5861 174.792 86.4109 173.599 85.2421C170.735 82.4243 167.994 79.5655 165.389 76.5057C160.87 71.3167 156.033 66.4594 151.18 61.5843C150.698 61.1002 150.217 60.6161 149.721 60.1173C147.181 57.5618 144.637 55.0091 142.091 52.4589C139.479 49.8409 136.876 47.2139 134.275 44.5846C132.255 42.5462 130.229 40.5147 128.201 38.4849C126.774 37.0539 125.355 35.6159 123.935 34.1777C116.338 26.4953 116.338 26.4953 106.523 22.4437C98.1501 24.1526 91.5121 32.7386 85.7383 38.5609Z" fill="#00F7ED"/>
<path d="M138.359 80.0466C145.656 84.8823 152.091 90.8055 158.562 96.6716C159.332 97.3681 159.332 97.3681 160.117 98.0786C165.708 103.229 165.708 103.229 166.438 107.148C165.798 111.017 163.815 112.502 161 115.172C160.497 115.653 159.993 116.134 159.475 116.63C157.996 118.033 156.501 119.417 155 120.797C154.287 121.464 153.574 122.132 152.84 122.82C138.586 135.757 123.211 143.372 103.844 143.043C88.8365 142.082 76.9893 135.883 66 125.797C65.34 124.807 64.68 123.817 64 122.797C66.31 120.487 68.62 118.177 71 115.797C74.2713 117.432 77.098 119.151 80.125 121.172C91.7559 128.635 102.646 131.412 116.25 128.734C129.365 125.421 138.645 118.118 148 108.797C142.981 97.8827 129.958 90.386 119.062 86.2341C108.03 83.0422 97.3033 83.8732 87 88.7966C86.2678 89.124 85.5356 89.4514 84.7812 89.7888C74.4069 94.9384 65.111 103.772 58 112.797C53.4069 111.311 50.5643 108.946 47 105.797C52.6306 91.8526 70.9199 81.4736 83.6758 75.2068C101.11 67.8109 122.257 70.6297 138.359 80.0466Z" fill="#00F7ED"/>
<circle cx="107" cy="107" r="20" fill="#00F7ED"/>
<path d="M687.339 146.63L697.089 145.85V90.86L687.729 88.52V81.5L705.669 79.16H705.929L708.789 81.5V83.84L708.399 93.98H708.789C709.655 92.5067 711.215 90.6 713.469 88.26C715.722 85.92 718.625 83.7967 722.179 81.89C725.732 79.8967 729.589 78.9 733.749 78.9C735.482 78.9 736.912 79.1167 738.039 79.55V94.11C737.432 93.6767 736.435 93.2867 735.049 92.94C733.749 92.5067 732.275 92.29 730.629 92.29C723.435 92.29 716.762 94.5 710.609 98.92V145.72L727.119 146.76V153H687.339V146.63Z" fill="white"/>
<path d="M607.987 116.73C607.987 108.93 609.59 102.17 612.797 96.45C616.003 90.73 620.207 86.3967 625.407 83.45C630.693 80.4167 636.327 78.9 642.307 78.9C653.227 78.9 661.417 82.3667 666.877 89.3C672.423 96.2334 675.197 105.333 675.197 116.6C675.197 124.487 673.593 131.29 670.387 137.01C667.18 142.73 662.933 147.063 657.647 150.01C652.447 152.957 646.857 154.43 640.877 154.43C629.957 154.43 621.723 150.963 616.177 144.03C610.717 137.097 607.987 127.997 607.987 116.73ZM641.657 147.02C647.637 147.02 652.23 144.55 655.437 139.61C658.643 134.67 660.247 127.347 660.247 117.64C660.247 108.02 658.773 100.393 655.827 94.76C652.88 89.1267 648.157 86.31 641.657 86.31C635.677 86.31 631.04 88.78 627.747 93.72C624.54 98.66 622.937 105.983 622.937 115.69C622.937 125.31 624.453 132.937 627.487 138.57C630.52 144.203 635.243 147.02 641.657 147.02Z" fill="white"/>
<path d="M574.186 56.02L563.656 54.59V49L584.586 46.53H584.846L587.706 48.48V145.59L598.756 146.63V153H563.656V146.63L574.186 145.46V56.02Z" fill="white"/>
<path d="M525.963 154.43C515.476 154.43 507.459 151.007 501.913 144.16C496.453 137.313 493.723 128.17 493.723 116.73C493.723 109.19 495.153 102.56 498.013 96.84C500.873 91.12 504.859 86.7 509.973 83.58C515.173 80.46 521.066 78.9 527.653 78.9C535.713 78.9 541.953 81.1534 546.373 85.66C550.879 90.08 553.263 96.45 553.523 104.77C553.523 110.057 553.219 114.087 552.613 116.86H507.893C508.066 125.44 510.059 132.373 513.873 137.66C517.686 142.86 523.103 145.46 530.123 145.46C533.589 145.46 537.186 144.853 540.913 143.64C544.726 142.34 547.673 140.823 549.753 139.09L552.223 144.81C549.709 147.41 545.983 149.663 541.043 151.57C536.103 153.477 531.076 154.43 525.963 154.43ZM539.223 109.97C539.483 108.15 539.613 106.287 539.613 104.38C539.526 98.7467 538.313 94.3267 535.973 91.12C533.719 87.8267 530.123 86.18 525.183 86.18C520.156 86.18 516.126 88 513.093 91.64C510.146 95.28 508.456 101.39 508.023 109.97H539.223Z" fill="white"/>
<path d="M414.116 80.8501H444.276V86.9601L435.046 88.6501L448.176 126.09L453.636 142.6L458.316 126.61L471.446 88.6501L462.606 86.9601V80.8501H488.996V86.9601L482.236 88.6501L457.146 154.04H446.096L419.966 88.6501L414.116 86.9601V80.8501Z" fill="white"/>
<path d="M381.363 154.43C370.876 154.43 362.86 151.007 357.313 144.16C351.853 137.313 349.123 128.17 349.123 116.73C349.123 109.19 350.553 102.56 353.413 96.84C356.273 91.12 360.26 86.7 365.373 83.58C370.573 80.46 376.467 78.9 383.053 78.9C391.113 78.9 397.353 81.1534 401.773 85.66C406.28 90.08 408.663 96.45 408.923 104.77C408.923 110.057 408.62 114.087 408.013 116.86H363.293C363.467 125.44 365.46 132.373 369.273 137.66C373.087 142.86 378.503 145.46 385.523 145.46C388.99 145.46 392.586 144.853 396.313 143.64C400.126 142.34 403.073 140.823 405.153 139.09L407.623 144.81C405.11 147.41 401.383 149.663 396.443 151.57C391.503 153.477 386.477 154.43 381.363 154.43ZM394.623 109.97C394.883 108.15 395.013 106.287 395.013 104.38C394.927 98.7467 393.713 94.3267 391.373 91.12C389.12 87.8267 385.523 86.18 380.583 86.18C375.557 86.18 371.526 88 368.493 91.64C365.546 95.28 363.856 101.39 363.423 109.97H394.623Z" fill="white"/>
<path d="M257.98 146.63L268.77 145.33V64.47L258.63 62.78V56.41H275.66C278.087 56.41 281.38 56.2367 285.54 55.89C289.873 55.5433 293.253 55.37 295.68 55.37C308.42 55.37 317.477 57.45 322.85 61.61C328.31 65.6833 331.04 72.14 331.04 80.98C331.04 87.1333 329.307 92.7667 325.84 97.88C322.46 102.993 317.78 106.46 311.8 108.28C314.573 109.753 317.13 112.31 319.47 115.95C321.897 119.503 324.843 124.487 328.31 130.9C330.997 135.753 333.033 139.307 334.42 141.56C335.893 143.813 337.28 145.07 338.58 145.33L343.65 146.63V153H325.71C324.323 153 322.763 151.527 321.03 148.58C319.297 145.547 317 140.91 314.14 134.67C311.02 127.823 308.29 122.407 305.95 118.42C303.697 114.347 301.443 111.747 299.19 110.62C289.917 110.62 284.413 110.577 282.68 110.49V145.33L295.55 146.63V153H257.98V146.63ZM298.15 103.6C303.697 103.6 308.073 101.78 311.28 98.14C314.487 94.5 316.09 89.0833 316.09 81.89C316.09 75.5633 314.443 70.7533 311.15 67.46C307.943 64.08 302.353 62.39 294.38 62.39C291.607 62.39 288.833 62.5633 286.06 62.91C284.327 63.0833 283.2 63.17 282.68 63.17V103.47C283.98 103.557 286.667 103.6 290.74 103.6H298.15Z" fill="white"/>
</svg>
