<svg class="Logo_logo__eLECy" xmlns="http://www.w3.org/2000/svg" width="267.018" height="92" viewBox="0 0 267.018 92"><g transform="translate(-165.782 -335.193)"><rect fill="#f5f5f5" width="62" height="30" transform="translate(195.782 335.193)"></rect><rect fill="#f5f5f5" width="30" height="29" transform="translate(165.782 398.193)"></rect><rect fill="#f5f5f5" width="29" height="63" transform="translate(228.782 335.193)"></rect><path fill="#f5f5f5" d="M414.735,360.255c-3.783,0-5.6-1.258-5.968-4.447h-5.256c.185,5.6,4.262,8.777,11.448,8.777,5.959,0,10.3-2.994,10.3-8.367,0-5.7-4.447-7-9.9-8.191-3.92-.848-5.773-1.482-5.773-3.628,0-1.891,1.892-3.11,4.778-3.11,2.74,0,4.817,1.326,5.11,4h5.148c-.409-5.334-4.262-8.26-10.219-8.26-5.89,0-10.151,2.7-10.151,7.928,0,5.519,4.33,6.777,9.068,7.85,4.047.927,6.563,1.443,6.563,4.037,0,2.448-2.408,3.413-5.148,3.413" transform="translate(-114.807 -0.886)"></path><path fill="#f5f5f5" d="M463.206,364.446h5.041V352.032c0-4.155-2.633-7.118-6.563-7.118a6.066,6.066,0,0,0-5.519,3h-.107v-9.966h-5.041v26.495h5.041V353.661c0-2.594,1.629-4.369,3.852-4.369a3.164,3.164,0,0,1,3.3,3.481Z" transform="translate(-137.749 -1.332)"></path><path fill="#f5f5f5" d="M498.493,355.239c3.081,0,4.816,2.516,4.816,6.221s-1.736,6.182-4.816,6.182c-3.111,0-4.818-2.476-4.818-6.182s1.706-6.221,4.818-6.221m0,16.265a10.045,10.045,0,1,0-9.927-10.044,9.669,9.669,0,0,0,9.927,10.044" transform="translate(-155.883 -7.835)"></path><path fill="#f5f5f5" d="M541.015,367.312c-3,0-4.593-2.252-4.593-5.7,0-3.4,1.258-6.114,4.407-6.114,3.111,0,4.368,2.525,4.368,6.114s-1.628,5.7-4.183,5.7m1.034-15.895a6.657,6.657,0,0,0-5.6,2.9h-.108v-2.369h-4.856v25.227h5.041v-8.376h.078a6.114,6.114,0,0,0,5.48,2.711c4.9,0,8.221-3.891,8.221-10.044,0-5.929-3.218-10.044-8.26-10.044" transform="translate(-176.611 -7.835)"></path><path fill="#f5f5f5" d="M580.118,362.158s-.849.039-1.482.039a1.672,1.672,0,0,1-1.892-1.891V350.233h3.266V346.9h-4.436a2.635,2.635,0,0,0,1.17-2.282v-3.647h-4.925v3.469c-.1,2.065-2.631,2.455-2.631,2.455l.008,0h-.009v3.335h2.632v11.146c0,3.6,2.7,4.554,5.149,4.554,2,0,3.15-.068,3.15-.068Z" transform="translate(-194.817 -2.79)"></path><path fill="#f5f5f5" d="M602.435,355.307a4.016,4.016,0,0,1,4.037,4.076h-8.455c.449-2.477,1.746-4.076,4.418-4.076m4.037,9.966a3.543,3.543,0,0,1-3.666,2.34c-2.857,0-4.486-1.814-4.856-4.749h13.779c0-6.777-3.256-11.448-9.371-11.448-5.558,0-9.371,4.378-9.371,10.005,0,5.675,3.55,10.083,9.849,10.083,4.9,0,7.9-2.857,8.6-6.231Z" transform="translate(-206.311 -7.835)"></path><path fill="#f5f5f5" d="M630.893,346.9v3.335h2.633v11.146c0,3.6,2.7,4.554,5.148,4.554,2,0,3.15-.069,3.15-.069v-3.705s-.858.039-1.482.039a1.672,1.672,0,0,1-1.892-1.891V350.233h3.258V346.9H637.32a2.59,2.59,0,0,0,1.131-1.784v-4.144h-4.924v3.438c-.075,2.093-2.633,2.486-2.633,2.486l.008,0Z" transform="translate(-224.617 -2.79)"></path><g transform="translate(289.883 370.749)"><rect fill="#ff735a" width="5.041" height="4.524" transform="translate(86.709 0)"></rect><path fill="#ff735a" d="M416.909,416.479H411.35v-7.85h5.637c2.662,0,4.222,1.4,4.222,3.891,0,2.408-1.482,3.959-4.3,3.959m.517-12.521H405.792v26.495h5.558v-9.6h6.524c5.558,0,8.853-3.374,8.853-8.376a8.455,8.455,0,0,0-2.369-6.036c-1.561-1.6-3.852-2.487-6.934-2.487" transform="translate(-405.792 -403.958)"></path><path fill="#ff735a" d="M455.622,421.264h-.107v-3.033h-4.856v19.005H455.7v-9.264c0-4.008,2.37-5.744,5.666-5.412h.107v-4.407a3.338,3.338,0,0,0-1.179-.146c-2.223,0-3.52,1.112-4.672,3.257" transform="translate(-427.46 -410.743)"></path><path fill="#ff735a" d="M477.982,425.39c.449-2.477,1.746-4.076,4.417-4.076a4.009,4.009,0,0,1,4.037,4.076Zm4.339-7.967c-5.558,0-9.371,4.378-9.371,10,0,5.675,3.55,10.083,9.849,10.083,4.9,0,7.9-2.858,8.6-6.232h-4.963a3.544,3.544,0,0,1-3.666,2.341c-2.857,0-4.486-1.814-4.856-4.749h13.779c0-6.778-3.257-11.448-9.372-11.448" transform="translate(-438.225 -410.461)"></path><path fill="#ff735a" d="M535.243,417.423a6.622,6.622,0,0,0-5.7,3.335h-.069a5.681,5.681,0,0,0-5.265-3.335,6.194,6.194,0,0,0-5.52,3.081h-.107v-2.555h-4.857v19.005h5.042V425.907c0-2.516,1.366-4.144,3.4-4.144,1.853,0,2.925,1.112,2.925,3.257v11.935h5.042V425.907c0-2.516,1.3-4.144,3.413-4.144,1.853,0,2.926,1.112,2.926,3.257v11.935h5.041V424.171c0-4.154-2.262-6.748-6.271-6.748" transform="translate(-457.915 -410.461)"></path><rect fill="#ff735a" width="5.041" height="19.005" transform="translate(86.709 7.489)"></rect><path fill="#ff735a" d="M601.218,429.4c0,2.526-1.444,4.3-3.813,4.3-2.145,0-3.149-1.219-3.149-3.442V418.441h-5v12.667c0,4.154,2.369,6.855,6.592,6.855a6.114,6.114,0,0,0,5.451-2.74h.107v2.223h4.856V418.441h-5.041Z" transform="translate(-494.391 -410.952)"></path><path fill="#ff735a" d="M649.982,417.423a6.624,6.624,0,0,0-5.7,3.335H644.2a5.667,5.667,0,0,0-5.257-3.335,6.192,6.192,0,0,0-5.518,3.081h-.118v-2.555H628.46v19.005h5.032V425.907c0-2.516,1.375-4.144,3.413-4.144,1.853,0,2.926,1.112,2.926,3.257v11.935h5.041V425.907c0-2.516,1.3-4.144,3.4-4.144,1.852,0,2.935,1.112,2.935,3.257v11.935h5.032V424.171c0-4.154-2.253-6.748-6.26-6.748" transform="translate(-513.326 -410.461)"></path></g></g></svg>